<svg aria-hidden="true" style="position: absolute; width: 0; height: 0; overflow: hidden;" version="1.1" xmlns="http://www.w3.org/2000/svg" xmlns:xlink="http://www.w3.org/1999/xlink">
<defs>
<symbol id="icon-watch" viewBox="0 0 29 32">
<path d="M26.698 14.366c1.245 0.733 1.245 2.535 0 3.267l-23.001 13.529c-1.263 0.741-2.855-0.168-2.855-1.634v-27.059c0-1.465 1.592-2.375 2.855-1.634l23.001 13.529z"></path>
</symbol>
<symbol id="icon-twitter" viewBox="0 0 38 32">
<path d="M36.8 1.616c-1.44 1.028-3.109 1.862-4.9 2.415l-0.124 0.033c-1.321-1.513-3.254-2.464-5.409-2.464-3.959 0-7.168 3.209-7.168 7.168 0 0.034 0 0.068 0.001 0.101l-0-0.005v1.6c-0.132 0.004-0.287 0.006-0.442 0.006-5.748 0-10.832-2.844-13.922-7.201l-0.036-0.053s-6.4 14.4 8 20.8c-2.931 2.013-6.555 3.215-10.46 3.215-0.26 0-0.519-0.005-0.777-0.016l0.037 0.001c14.4 8 32 0 32-18.4 0-0.445-0.045-0.89-0.128-1.328 1.587-1.566 2.752-3.556 3.31-5.787l0.018-0.085z"></path>
</symbol>
<symbol id="icon-tick" viewBox="0 0 39 32">
<path d="M38.809 1.329c-0.353-0.364-0.847-0.59-1.393-0.59s-1.040 0.226-1.393 0.59l-0 0-23.591 24.098-9.068-9.263c-0.353-0.364-0.847-0.59-1.393-0.59s-1.040 0.226-1.393 0.59l-0 0c-0.356 0.367-0.576 0.869-0.576 1.422s0.22 1.054 0.576 1.422l-0-0.001 10.462 10.683c0.353 0.363 0.847 0.589 1.393 0.589s1.040-0.226 1.393-0.589l0-0 24.985-25.516c0.356-0.367 0.576-0.869 0.576-1.422s-0.22-1.054-0.576-1.422l0.001 0.001z"></path>
</symbol>
<symbol id="icon-theme" viewBox="0 0 32 32">
<path d="M16 29.333c7.352 0 13.333-5.981 13.333-13.333s-5.981-13.333-13.333-13.333-13.333 5.981-13.333 13.333 5.981 13.333 13.333 13.333zM16 5.333c5.881 0 10.667 4.785 10.667 10.667s-4.785 10.667-10.667 10.667-10.667-4.785-10.667-10.667 4.785-10.667 10.667-10.667z"></path>
<pathd="M25.333 16c0-5.155-4.179-9.333-9.333-9.333v0 18.667c5.155 0 9.333-4.179 9.333-9.333v0z"></path>
</symbol>
<symbol id="icon-star" viewBox="0 0 32 32">
<path d="M7.070 19.040l-2.304 9.967c-0.026 0.106-0.041 0.227-0.041 0.352 0 0.852 0.691 1.543 1.543 1.543 0.32 0 0.618-0.098 0.865-0.265l-0.005 0.003 8.413-5.608 8.411 5.608c0.241 0.164 0.539 0.262 0.86 0.262 0.853 0 1.544-0.691 1.544-1.544 0-0.152-0.022-0.299-0.063-0.438l0.003 0.011-2.826-9.886 7.006-6.306c0.315-0.284 0.512-0.693 0.512-1.149 0-0.81-0.623-1.474-1.416-1.539l-0.006-0-8.808-0.702-3.81-8.436c-0.248-0.54-0.784-0.908-1.406-0.908s-1.158 0.368-1.402 0.899l-0.004 0.010-3.813 8.438-8.807 0.697c-0.798 0.066-1.422 0.73-1.422 1.54 0 0.433 0.178 0.824 0.465 1.104l6.511 6.346zM11.478 12.357c0.574-0.047 1.055-0.401 1.281-0.896l0.004-0.010 2.779-6.149 2.779 6.149c0.23 0.505 0.711 0.859 1.28 0.906l0.006 0 6.136 0.487-5.053 4.547c-0.315 0.284-0.512 0.694-0.512 1.15 0 0.151 0.022 0.296 0.062 0.434l-0.003-0.011 1.937 6.774-5.772-3.848c-0.24-0.163-0.537-0.261-0.856-0.261s-0.616 0.097-0.862 0.264l0.005-0.003-6.031 4.022 1.622-7.023c0.025-0.104 0.039-0.224 0.039-0.347 0-0.433-0.178-0.824-0.465-1.105l-0-0-4.694-4.576 6.319-0.504z"></path>
</symbol>
<symbol id="icon-overview" viewBox="0 0 41 32">
<path d="M21.673 12.51l2.674 1.246 3.977-1.184v-2.777c0-4.713-3.977-8.489-8.731-8.489-4.736 0-8.736 3.755-8.736 8.432v12.651c0 1.166-0.937 2.082-2.080 2.082s-2.082-0.919-2.082-2.080v-5.349h-6.695v5.426c0 4.835 3.919 8.754 8.754 8.754v0c4.798 0 8.754-3.856 8.754-8.631v-12.491c0-1.143 0.939-2.080 2.082-2.080s2.082 0.937 2.082 2.080v2.409zM32.489 17.040v5.611c0 1.143-0.937 2.062-2.080 2.062s-2.082-0.919-2.082-2.062v-5.509l-3.979 1.184-2.674-1.246v5.47c0 4.795 3.938 8.672 8.754 8.672 4.835 0 8.754-3.919 8.754-8.754v0-5.429h-6.693z"></path>
</symbol>
<symbol id="icon-logo" viewBox="0 0 35 32">
<path fill="#02bc6b" style="fill: var(--color4, #02bc6b)" d="M2.71 29.802c-1.495-0.004-2.706-1.215-2.71-2.71v-9.472h6.82v-0.010h4.099c1.057-0.028 1.951-0.949 1.951-2.032-0.008-1.119-0.913-2.024-2.032-2.032l-10.839 0.002v-2.711c0.004-1.495 1.215-2.705 2.709-2.71h8.13c2.058 0 3.82 0.732 5.256 2.195 1.463 1.436 2.195 3.197 2.195 5.257 0 2.032-0.704 3.793-2.141 5.23s-3.171 2.195-5.202 2.222h-5.528v4.065c-0.004 1.495-1.215 2.705-2.709 2.71h-0z"></path>
<path fill="#02897a" style="fill: var(--color1, #02897a)" d="M21.706 4.98c2.994 2.908 4.503 6.53 4.503 10.646 0 4.048-1.445 7.665-4.393 10.582l-4.184-3.937c1.834-1.814 2.733-3.998 2.733-6.646 0-2.667-0.927-4.848-2.804-6.671l4.146-3.975z"></path>
<path fill="#035b81" style="fill: var(--color5, #035b81)" d="M28.112 0c4.312 4.305 6.482 9.643 6.482 15.77 0 6.031-2.083 11.365-6.324 15.68l-4.039-3.946c3.16-3.214 4.707-7.112 4.707-11.734 0-4.669-1.6-8.563-4.828-11.786l4.001-3.984z"></path>
<path fill="#028e37" style="fill: var(--color6, #028e37)" d="M0 23.050h5.419v4.042c-0.004 1.495-1.215 2.705-2.709 2.71h-0c-1.495-0.004-2.705-1.215-2.71-2.709v-4.043z"></path>
</symbol>
<symbol id="icon-instagram" viewBox="0 0 31 32">
<path d="M21.76 2.58h-12.8c-3.535 0-6.4 2.865-6.4 6.4v0 12.8c0 3.535 2.865 6.4 6.4 6.4v0h12.8c3.535 0 6.4-2.865 6.4-6.4v0-12.8c0-3.535-2.865-6.4-6.4-6.4v0z"></path>
<path d="M20.48 14.574c0.035 0.226 0.055 0.486 0.055 0.751 0 2.828-2.292 5.12-5.12 5.12-2.563 0-4.686-1.883-5.061-4.341l-0.004-0.028c-0.035-0.226-0.055-0.486-0.055-0.751 0-2.828 2.292-5.12 5.12-5.12 2.563 0 4.686 1.883 5.061 4.341l0.004 0.028zM22.4 8.34h0.013"></path>
</symbol>
<symbol id="icon-hourglass" viewBox="0 0 26 32">
<path d="M23.663 2.37h1.615c0.301 0 0.536-0.235 0.536-0.538v-1.075c0-0.002 0-0.005 0-0.008 0-0.293-0.238-0.531-0.531-0.531-0.002 0-0.004 0-0.006 0h-24.739c-0.002-0-0.005-0-0.008-0-0.293 0-0.531 0.238-0.531 0.531 0 0.003 0 0.005 0 0.008v-0 1.073c0 0.305 0.235 0.54 0.538 0.54h1.613c0 6.217 2.974 10.722 6.268 12.907-3.294 2.184-6.268 6.688-6.268 12.907h-1.613c-0.002-0-0.005-0-0.008-0-0.293 0-0.531 0.238-0.531 0.531 0 0.003 0 0.005 0 0.008v-0 1.075c0 0.301 0.235 0.538 0.538 0.538h24.74c0.301 0 0.536-0.235 0.536-0.538v-1.075c0-0.002 0-0.005 0-0.008 0-0.293-0.238-0.531-0.531-0.531-0.002 0-0.004 0-0.006 0h-1.615c0-6.219-2.974-10.722-6.268-12.907 3.294-2.184 6.268-6.69 6.268-12.907zM21.513 2.37c0 0.024 0 0.053 0 0.082 0 2.315-0.528 4.506-1.47 6.46l0.039-0.089h-14.349c-0.903-1.865-1.431-4.056-1.431-6.371 0-0.029 0-0.058 0-0.086l-0 0.004h17.212zM20.553 22.807h-15.29c1.242-3.243 3.479-5.547 5.713-6.455h3.866c2.234 0.907 4.471 3.211 5.715 6.455z"></path>
</symbol>
<symbol id="icon-heart" viewBox="0 0 37 32">
<path d="M18.286 31.938c0.002 0 0.005 0 0.008 0 0.347 0 0.662-0.14 0.89-0.366l-0 0 12.713-12.247c0.183-0.183 4.674-4.286 4.674-9.184 0-5.979-3.653-9.547-9.755-9.547-3.57-0.002-6.919 2.811-8.53 4.405-1.611-1.591-4.96-4.405-8.53-4.405-6.103-0.002-9.755 3.566-9.755 9.547 0 4.898 4.489 9.001 4.654 9.143l12.734 12.286c0.245 0.245 0.571 0.366 0.898 0.366z"></path>
</symbol>
<symbol id="icon-facebook" viewBox="0 0 32 32">
<path d="M24 2.667h-4c-3.682 0-6.667 2.985-6.667 6.667v0 4h-4v5.333h4v10.667h5.333v-10.667h4l1.333-5.333h-5.333v-4c0-0.736 0.597-1.333 1.333-1.333v0h4v-5.333z"></path>
</symbol>
<symbol id="icon-arrow" viewBox="0 0 21 32">
<path d="M19.042 17.747l-17.21-17.21c-0.184-0.197-0.445-0.32-0.735-0.32-0.008 0-0.015 0-0.023 0l0.001-0c-0.146 0.002-0.284 0.033-0.41 0.087l0.007-0.003c-0.395 0.164-0.669 0.546-0.672 0.992v25.278c0 0.437 0.269 0.823 0.672 0.992 0.119 0.051 0.257 0.081 0.402 0.083h0.001c0.296-0.002 0.564-0.124 0.757-0.32l5.244-5.242 3.209 7.597c0.17 0.388 0.55 0.655 0.993 0.655 0.151 0 0.295-0.031 0.426-0.087l-0.007 0.003 2.974-1.261c0.389-0.169 0.656-0.55 0.656-0.994 0-0.151-0.031-0.295-0.087-0.425l0.003 0.007-3.377-8h6.419c0.446-0.003 0.828-0.277 0.989-0.665l0.003-0.007c0.054-0.121 0.085-0.262 0.085-0.411 0-0.294-0.123-0.56-0.32-0.748l-0-0z"></path>
</symbol>
</defs>
</svg>
